<svg id="Layer_1" data-name="Layer 1" xmlns="http://www.w3.org/2000/svg" viewBox="0 0 250 150"><defs><style>.cls-1{fill:#25eaef;}.cls-2{fill:none;stroke:#223f99;stroke-miterlimit:10;}</style></defs><path class="cls-1" d="M81.33,72.08q0-5.07-5.15-4.35a5.74,5.74,0,0,0-3.68,1.92,5.65,5.65,0,0,0-1.4,3.87V102a4.31,4.31,0,0,0,1.4,3.48,4.42,4.42,0,0,0,3.68.89,5.9,5.9,0,0,0,3.71-1.93,5.6,5.6,0,0,0,1.44-3.88Z"/><path class="cls-1" d="M112.16,102.13A3.5,3.5,0,0,1,108,98.59h0l-.08-19a5.09,5.09,0,0,0-1.78-4,5.19,5.19,0,0,0-4.28-1.18,7,7,0,0,0-4.37,2.36,6.71,6.71,0,0,0-1.78,4.57V98.49a5.58,5.58,0,0,1-1.44,3.88,5.85,5.85,0,0,1-3.71,1.93,4.39,4.39,0,0,1-3.68-.89,4.31,4.31,0,0,1-1.4-3.48V82.72a18,18,0,0,1,4.74-12.27,18.5,18.5,0,0,1,11.64-6.33,14.1,14.1,0,0,1,11.64,3.06,13.65,13.65,0,0,1,4.73,10.94l.39,16.44a7.74,7.74,0,0,1-6.49,7.57Z"/><path class="cls-1" d="M141.7,97.27q-8.2,1.16-13.77-3.68t-5.57-13A21.45,21.45,0,0,1,127.93,66a21.84,21.84,0,0,1,13.77-7.51q8.19-1.16,13.79,3.63t5.62,13v29.65a5.75,5.75,0,0,1-1.44,3.92,5.86,5.86,0,0,1-3.72,2,4.34,4.34,0,0,1-3.68-.92,4.5,4.5,0,0,1-1.4-3.52V76.67a7.72,7.72,0,0,0-9.17-7.91,10.86,10.86,0,0,0-9,9.26,8.33,8.33,0,0,0,3,7.52A7.73,7.73,0,0,0,141.7,87a4.53,4.53,0,0,1,3.71.89,4.24,4.24,0,0,1,1.45,3.47,5.78,5.78,0,0,1-1.45,3.92A5.86,5.86,0,0,1,141.7,97.27Z"/><path class="cls-1" d="M175.44,43.47V87.29A5.58,5.58,0,0,1,174,91.17a5.85,5.85,0,0,1-3.71,1.93,4.39,4.39,0,0,1-3.68-.89,4.31,4.31,0,0,1-1.4-3.48V44.9a5.65,5.65,0,0,1,1.4-3.87,5.74,5.74,0,0,1,3.68-1.92Q175.44,38.39,175.44,43.47Z"/><path class="cls-1" d="M198.87,50.48q8.19-1.14,13.8,3.64t5.62,13a21.46,21.46,0,0,1-5.62,14.59,21.85,21.85,0,0,1-13.8,7.55q-8.19,1.15-13.76-3.67t-5.57-13A21.47,21.47,0,0,1,185.11,58,21.84,21.84,0,0,1,198.87,50.48Zm0,10.24a10.23,10.23,0,0,0-6.44,3.56,10.08,10.08,0,0,0-2.66,6.82,7.76,7.76,0,0,0,9.1,7.9,10.38,10.38,0,0,0,6.49-3.61,10.15,10.15,0,0,0,2.69-6.86,7.58,7.58,0,0,0-2.69-6.07A8,8,0,0,0,198.87,60.72Z"/><path class="cls-1" d="M40.9,60.41,50.58,87a.7.7,0,0,0,1.33,0l9.74-29.5a5.54,5.54,0,0,1,4.69-4.15,4.81,4.81,0,0,1,3.71.92,4,4,0,0,1,1.59,3.34,6.12,6.12,0,0,1-.38,1.87l-15.14,46c-1,3-2.62,4.69-4.85,5s-3.83-.9-4.84-3.64L31.21,65.11a5.41,5.41,0,0,1-.3-1.78,5.33,5.33,0,0,1,1.59-3.78,6.24,6.24,0,0,1,3.71-2A3.93,3.93,0,0,1,40.9,60.41Z"/><path class="cls-2" d="M82.13,72.33C82.13,69,80.42,67.5,77,68A5.78,5.78,0,0,0,73.3,69.9a5.65,5.65,0,0,0-1.4,3.87v28.44a4.31,4.31,0,0,0,1.4,3.48,4.42,4.42,0,0,0,3.68.89,5.9,5.9,0,0,0,3.71-1.93,5.6,5.6,0,0,0,1.44-3.88Z"/><path class="cls-2" d="M113,102.38a3.5,3.5,0,0,1-4.13-3.54h0l-.08-19a5,5,0,0,0-1.78-4,5.16,5.16,0,0,0-4.28-1.19A7,7,0,0,0,98.33,77a6.67,6.67,0,0,0-1.79,4.57V98.75a5.62,5.62,0,0,1-1.44,3.88,6,6,0,0,1-3.71,1.93,4.46,4.46,0,0,1-3.68-.89,4.33,4.33,0,0,1-1.4-3.49V83a17.94,17.94,0,0,1,4.74-12.26,18.47,18.47,0,0,1,11.64-6.34,14.09,14.09,0,0,1,11.64,3.06,13.63,13.63,0,0,1,4.74,10.94l.38,16.44a7.74,7.74,0,0,1-6.49,7.57Z"/><path class="cls-2" d="M142.5,97.52q-8.19,1.16-13.76-3.68t-5.58-13a21.43,21.43,0,0,1,5.58-14.54,21.82,21.82,0,0,1,13.76-7.51q8.19-1.16,13.8,3.64t5.61,13V105a5.75,5.75,0,0,1-1.44,3.92,5.86,5.86,0,0,1-3.72,2,4.32,4.32,0,0,1-3.67-.92,4.44,4.44,0,0,1-1.41-3.52V76.92A7.73,7.73,0,0,0,142.5,69a10.87,10.87,0,0,0-9,9.26,8.3,8.3,0,0,0,3,7.53,7.73,7.73,0,0,0,6.08,1.48,4.52,4.52,0,0,1,3.71.89,4.22,4.22,0,0,1,1.45,3.47,5.73,5.73,0,0,1-1.45,3.92A5.84,5.84,0,0,1,142.5,97.52Z"/><path class="cls-2" d="M176.24,43.72V87.54a5.63,5.63,0,0,1-1.44,3.89,5.89,5.89,0,0,1-3.71,1.92,4.39,4.39,0,0,1-3.68-.89A4.31,4.31,0,0,1,166,89V45.16a5.66,5.66,0,0,1,1.4-3.88,5.78,5.78,0,0,1,3.68-1.92C174.53,38.88,176.24,40.33,176.24,43.72Z"/><path class="cls-2" d="M199.67,50.74q8.19-1.16,13.8,3.63t5.62,13a21.51,21.51,0,0,1-5.62,14.6,21.89,21.89,0,0,1-13.8,7.54q-8.19,1.15-13.76-3.67t-5.57-13a21.47,21.47,0,0,1,5.57-14.55A21.83,21.83,0,0,1,199.67,50.74Zm0,10.23a10.25,10.25,0,0,0-6.44,3.56,10.1,10.1,0,0,0-2.66,6.82,7.76,7.76,0,0,0,9.1,7.9,10.38,10.38,0,0,0,6.49-3.61,10.15,10.15,0,0,0,2.69-6.86,7.56,7.56,0,0,0-2.69-6.06A7.92,7.92,0,0,0,199.67,61Z"/><path class="cls-2" d="M41.71,60.67l9.67,26.6a.7.7,0,0,0,1.33,0l9.74-29.5a5.52,5.52,0,0,1,4.69-4.14,4.76,4.76,0,0,1,3.71.91,4,4,0,0,1,1.59,3.34,6.12,6.12,0,0,1-.38,1.87l-15.14,46q-1.52,4.53-4.84,5t-4.85-3.63L32,65.36a5.17,5.17,0,0,1-.31-1.78A5.33,5.33,0,0,1,33.3,59.8a6.24,6.24,0,0,1,3.71-2A4,4,0,0,1,41.71,60.67Z"/></svg>