<svg id="Layer_1" data-name="Layer 1" xmlns="http://www.w3.org/2000/svg" viewBox="0 0 32 32"><defs><style>.cls-1{fill:#25eaef;}.cls-2{fill:none;stroke:#223f99;stroke-miterlimit:10;}</style></defs><path class="cls-1" d="M9.77,5.09l4.88,13.42a.36.36,0,0,0,.67,0L20.23,3.62A2.78,2.78,0,0,1,22.6,1.53,2.41,2.41,0,0,1,24.47,2a2,2,0,0,1,.8,1.68,3,3,0,0,1-.2,1L17.44,27.83c-.51,1.52-1.32,2.36-2.44,2.52s-1.94-.45-2.44-1.83L4.88,7.45a2.68,2.68,0,0,1-.15-.89,2.72,2.72,0,0,1,.8-1.91,3.16,3.16,0,0,1,1.87-1A2,2,0,0,1,9.77,5.09Z"/><path class="cls-2" d="M11.77,5.22l4.88,13.41a.35.35,0,0,0,.67,0L22.23,3.75A2.79,2.79,0,0,1,24.6,1.66a2.41,2.41,0,0,1,1.87.46,2,2,0,0,1,.8,1.68,3.18,3.18,0,0,1-.19.94L19.44,28c-.5,1.52-1.32,2.36-2.44,2.52s-1.93-.46-2.44-1.84L6.89,7.58a2.5,2.5,0,0,1-.16-.89,2.72,2.72,0,0,1,.8-1.91,3.16,3.16,0,0,1,1.87-1A2,2,0,0,1,11.77,5.22Z"/></svg>